<svg id="eyurd5qtorgb1" xmlns="http://www.w3.org/2000/svg" xmlns:xlink="http://www.w3.org/1999/xlink" viewBox="0 0 1063.145000 672.790000" shape-rendering="geometricPrecision" text-rendering="geometricPrecision"><style><![CDATA[#eyurd5qtorgb10_to {animation: eyurd5qtorgb10_to__to 5000ms linear infinite normal forwards}@keyframes eyurd5qtorgb10_to__to { 0% {transform: translate(712.986420px,517.119995px)} 12% {transform: translate(612.990000px,517.119995px)} 24% {transform: translate(500.990000px,517.119995px)} 36% {transform: translate(430.990000px,517.119995px)} 48% {transform: translate(360.990000px,517.119995px)} 60% {transform: translate(290.990000px,517.119995px)} 72% {transform: translate(190.990000px,517.119995px)} 84% {transform: translate(90.990000px,517.119995px)} 98% {transform: translate(-90.990000px,517.119995px)} 100% {transform: translate(-90.990000px,517.119995px)} }#eyurd5qtorgb10 {animation: eyurd5qtorgb10_c_o 5000ms linear infinite normal forwards}@keyframes eyurd5qtorgb10_c_o { 0% {opacity: 1} 12% {opacity: 1} 24% {opacity: 1} 36% {opacity: 1} 48% {opacity: 1} 60% {opacity: 1} 72% {opacity: 1} 84% {opacity: 1} 98% {opacity: 0} 100% {opacity: 0} }#eyurd5qtorgb13_to {animation: eyurd5qtorgb13_to__to 5000ms linear infinite normal forwards}@keyframes eyurd5qtorgb13_to__to { 0% {transform: translate(273.986481px,504.119995px)} 12% {transform: translate(173.990000px,504.119995px)} 24% {transform: translate(40.990000px,504.119995px)} 36% {transform: translate(-30.990000px,504.119995px)} 48% {transform: translate(-100.990000px,504.119995px)} 60% {transform: translate(-70.990000px,504.119995px)} 100% {transform: translate(-70.990000px,504.119995px)} }#eyurd5qtorgb13 {animation: eyurd5qtorgb13_c_o 5000ms linear infinite normal forwards}@keyframes eyurd5qtorgb13_c_o { 0% {opacity: 1} 48% {opacity: 0} 100% {opacity: 0} }#eyurd5qtorgb16_to {animation: eyurd5qtorgb16_to__to 5000ms linear infinite normal forwards}@keyframes eyurd5qtorgb16_to__to { 0% {transform: translate(273.990000px,176.120033px)} 12% {transform: translate(173.990000px,176.120033px)} 24% {transform: translate(40.990000px,176.120033px)} 36% {transform: translate(-30.990000px,176.120033px)} 48% {transform: translate(-100.990000px,176.120033px)} 60% {transform: translate(-170.990000px,176.120033px)} 100% {transform: translate(-170.990000px,176.120033px)} }#eyurd5qtorgb16 {animation: eyurd5qtorgb16_c_o 5000ms linear infinite normal forwards}@keyframes eyurd5qtorgb16_c_o { 0% {opacity: 1} 12% {opacity: 1} 24% {opacity: 1} 36% {opacity: 1} 48% {opacity: 0} 100% {opacity: 0} }#eyurd5qtorgb19_to {animation: eyurd5qtorgb19_to__to 5000ms linear infinite normal forwards}@keyframes eyurd5qtorgb19_to__to { 0% {transform: translate(887.930786px,138.274994px)} 12% {transform: translate(787.930000px,138.274994px)} 24% {transform: translate(640.930000px,138.274994px)} 36% {transform: translate(570.930000px,138.274994px)} 48% {transform: translate(500.930000px,138.274994px)} 60% {transform: translate(470.930000px,138.274994px)} 72% {transform: translate(370.930000px,138.274994px)} 84% {transform: translate(270.930000px,138.274994px)} 98% {transform: translate(170.930000px,138.274994px)} 100% {transform: translate(170.930000px,138.274994px)} }#eyurd5qtorgb22_to {animation: eyurd5qtorgb22_to__to 5000ms linear infinite normal forwards}@keyframes eyurd5qtorgb22_to__to { 0% {transform: translate(197.930000px,627.274994px)} 12% {transform: translate(97.930000px,627.274994px)} 24% {transform: translate(-3.930000px,627.274994px)} 36% {transform: translate(-103.930000px,627.274994px)} 100% {transform: translate(-103.930000px,627.274994px)} }#eyurd5qtorgb22 {animation: eyurd5qtorgb22_c_o 5000ms linear infinite normal forwards}@keyframes eyurd5qtorgb22_c_o { 0% {opacity: 1} 28% {opacity: 0} 100% {opacity: 0} }#eyurd5qtorgb25_to {animation: eyurd5qtorgb25_to__to 5000ms linear infinite normal forwards}@keyframes eyurd5qtorgb25_to__to { 0% {transform: translate(917.930267px,653.274994px)} 12% {transform: translate(817.930000px,653.274994px)} 24% {transform: translate(717.930000px,653.274994px)} 36% {transform: translate(617.930000px,653.274994px)} 48% {transform: translate(517.930000px,653.274994px)} 60% {transform: translate(417.930000px,653.274994px)} 72% {transform: translate(317.930000px,653.274994px)} 84% {transform: translate(217.930000px,653.274994px)} 98% {transform: translate(117.930000px,653.274994px)} 100% {transform: translate(117.930000px,653.274994px)} }#eyurd5qtorgb28_to {animation: eyurd5qtorgb28_to__to 5000ms linear infinite normal forwards}@keyframes eyurd5qtorgb28_to__to { 0% {transform: translate(587.986145px,39.120041px)} 12% {transform: translate(487.990000px,39.120041px)} 24% {transform: translate(340.990000px,39.120041px)} 36% {transform: translate(270.990000px,39.120041px)} 48% {transform: translate(200.990000px,39.120041px)} 60% {transform: translate(130.990000px,39.120041px)} 72% {transform: translate(30.990000px,39.120041px)} 84% {transform: translate(-70.990000px,39.120041px)} 100% {transform: translate(-70.990000px,39.120041px)} }#eyurd5qtorgb28 {animation: eyurd5qtorgb28_c_o 5000ms linear infinite normal forwards}@keyframes eyurd5qtorgb28_c_o { 0% {opacity: 1} 12% {opacity: 1} 24% {opacity: 1} 36% {opacity: 1} 48% {opacity: 1} 60% {opacity: 1} 72% {opacity: 1} 84% {opacity: 0} 100% {opacity: 0} }#eyurd5qtorgb31_to {animation: eyurd5qtorgb31_to__to 5000ms linear infinite normal forwards}@keyframes eyurd5qtorgb31_to__to { 0% {transform: translate(29.910000px,208.274994px)} 12% {transform: translate(-29.910000px,208.274994px)} 100% {transform: translate(-29.910000px,208.274994px)} }]]></style><g id="eyurd5qtorgb2"><path id="eyurd5qtorgb3" d="M87.288000,510.290000C97.058000,513.890000,114.218000,516.850000,134.078000,519.230000C188.078000,525.710000,262.078000,528.010000,262.078000,528.010000C262.078000,528.010000,642.488000,559.560000,927.598000,442.220000C927.598000,442.220000,969.068000,420.480000,930.598000,391.220000C924.674164,386.847788,918.376459,383.006254,911.778000,379.740000L911.308000,379.270000C906.932220,375.225840,902.203366,371.581309,897.178000,368.380000C882.408000,358.830000,857.468000,347.510000,827.108000,352.640000L78.288000,473.750000C78.288000,473.750000,50.938000,496.860000,87.288000,510.290000Z" transform="matrix(1 0 0 1 116.19300000000000 -113.64000000000000)" fill="rgb(54,127,250)" stroke="none" stroke-width="1"/><path id="eyurd5qtorgb4" d="M1004.730000,455.400000L847.970000,344.180000L778.880000,356.130000L846.530000,473.750000C846.530000,473.750000,1002.930000,475,1004.730000,455.400000Z" transform="matrix(1 0 0 1 -652.04899999999998 -113.64000000000000)" fill="rgb(54,127,250)" stroke="none" stroke-width="1"/><path id="eyurd5qtorgb5" d="M678.360000,274.200000L366.110000,186.630000L315.780000,197.150000L456.830000,260.600000L500.910000,309.920000Z" transform="matrix(1 0 0 1 68.98099999999999 -0.01000000000000)" fill="rgb(54,127,250)" stroke="none" stroke-width="1"/><path id="eyurd5qtorgb6" d="M68.417000,519.230000C122.417000,525.710000,196.417000,528.010000,196.417000,528.010000C196.417000,528.010000,576.827000,559.560000,861.937000,442.220000C861.937000,442.220000,903.407000,420.480000,864.937000,391.220000L864.807000,391.760000C864.807000,391.760000,803.287000,433.340000,509.347000,468.050000Z" transform="matrix(1 0 0 1 181.85499999999999 -113.64000000000000)" fill="rgb(255,255,255)" stroke="rgb(0,0,0)" stroke-width="0.5"/><path id="eyurd5qtorgb7" d="M1005.100000,516.830000L865.500000,573.830000L830.430000,569.940000L913.930000,507.180000C913.930000,507.180000,1014.926000,485.630000,1005.100000,516.830000Z" transform="matrix(1 0 0 1 -704.63499999999999 -113.64000000000000)" fill="rgb(54,127,250)" stroke="none" stroke-width="1"/><path id="eyurd5qtorgb8" d="M119.909000,397.850000C126.569000,397.960000,141.829000,386.790000,151.319000,379.270000C146.943220,375.225840,142.214366,371.581309,137.189000,368.380000C129.539000,374.250000,115.929000,383.750000,108.359000,383.380000C97.429000,382.930000,109.879000,397.670000,119.909000,397.850000Z" transform="matrix(1 0 0 1 876.13199999999995 -113.64000000000000)" fill="rgb(89,203,253)" stroke="none" stroke-width="1"/><path id="eyurd5qtorgb9" d="M358.600000,713.860000L448.230000,718.550000L700.230000,548.630000L747.010000,517.080000L769.730000,501.750000C727.100000,465.750000,553.170000,515.400000,553.170000,515.400000C549.840000,518.210000,548.780000,522.880000,548.930000,528.040000C549.220000,537.700000,553.760000,549.040000,555.510000,553.120000C555.930000,554.120000,556.190000,554.650000,556.190000,554.650000Z" transform="matrix(1 0 0 1 3.23100000000000 -113.64000000000000)" fill="rgb(54,127,250)" stroke="none" stroke-width="1"/><g id="eyurd5qtorgb10_to" transform="translate(712.986420,517.119995)"><g id="eyurd5qtorgb10" transform="translate(-712.986420,-517.119995)"><path id="eyurd5qtorgb11" d="M362.593000,625.760000L378.143000,635.600000L368.723000,618.470000C371.390389,616.341764,374.690889,615.163014,378.103000,615.120000L378.353000,615.120000C379.431483,615.141100,380.509561,615.060747,381.573000,614.880000L386.833000,618.220000L384.583000,614.120000C388.309404,612.812051,391.528639,610.362634,393.783000,607.120000L403.193000,613.120000L397.253000,602.300000C402.753000,595.690000,410.173000,591.640000,418.343000,591.640000C428.133000,591.640000,436.853000,597.460000,442.483000,606.540000C445.881711,612.075381,451.991188,615.359225,458.483000,615.140000L459,615.140000C469.810000,615.140000,478.570000,627.390000,478.570000,642.510000C478.570000,657.630000,469.810000,669.880000,459,669.880000C456.624695,669.872456,454.287100,669.285483,452.190000,668.170000C444.741339,664.556464,436.083325,664.388347,428.500000,667.710000C422.091270,670.570001,414.768730,670.570001,408.360000,667.710000C400.841204,664.451297,392.278354,664.615476,384.890000,668.160000C382.805655,669.247738,380.491080,669.820381,378.140000,669.830000C367.330000,669.830000,358.570000,657.580000,358.570000,642.460000C358.492254,636.644736,359.874430,630.902861,362.590000,625.760000Z" transform="matrix(1 0 0 1 294.41800000000001 -113.64000000000000)" fill="rgb(242,242,242)" stroke="none" stroke-width="1"/><path id="eyurd5qtorgb12" d="M358.640000,665.810000C364.286850,664.741578,370.123827,665.375049,375.410000,667.630000C381.813711,670.497192,389.136289,670.497192,395.540000,667.630000C403.121425,664.298827,411.783607,664.467024,419.230000,668.090000C421.331970,669.202166,423.671962,669.788879,426.050000,669.800000C435.650000,669.800000,443.640000,660.120000,445.300000,647.360000C443.379161,645.965048,441.748741,644.208950,440.500000,642.190000C434.870000,633.120000,426.150000,627.300000,416.360000,627.300000C406.570000,627.300000,397.940000,633,392.320000,642C388.908633,647.517568,382.856548,650.845266,376.370000,650.770000L376.120000,650.770000C368.480000,650.750000,361.860000,656.870000,358.640000,665.810000Z" transform="matrix(1 0 0 1 327.62099999999998 -113.64000000000000)" opacity="0.03" fill="rgb(0,0,0)" stroke="none" stroke-width="1"/></g></g><g id="eyurd5qtorgb13_to" transform="translate(273.986481,504.119995)"><g id="eyurd5qtorgb13" transform="translate(-273.986481,-504.119995)"><path id="eyurd5qtorgb14" d="M801.593000,612.760000L817.143000,622.600000L807.723000,605.470000C810.390352,603.341697,813.690875,602.162938,817.103000,602.120000L817.353000,602.120000C818.431482,602.141071,819.509558,602.060717,820.573000,601.880000L825.833000,605.220000L823.583000,601.120000C827.309404,599.812051,830.528639,597.362634,832.783000,594.120000L842.193000,600.120000L836.253000,589.300000C841.753000,582.690000,849.173000,578.640000,857.343000,578.640000C867.133000,578.640000,875.853000,584.460000,881.483000,593.540000C884.881711,599.075381,890.991188,602.359225,897.483000,602.140000L898,602.140000C908.810000,602.140000,917.570000,614.390000,917.570000,629.510000C917.570000,644.630000,908.810000,656.880000,898,656.880000C895.624695,656.872456,893.287100,656.285483,891.190000,655.170000C883.741339,651.556464,875.083325,651.388347,867.500000,654.710000C861.091270,657.570001,853.768730,657.570001,847.360000,654.710000C839.841204,651.451297,831.278354,651.615476,823.890000,655.160000C821.805669,656.247775,819.491085,656.820420,817.140000,656.830000C806.330000,656.830000,797.570000,644.580000,797.570000,629.460000C797.492297,623.644741,798.874470,617.902876,801.590000,612.760000Z" transform="matrix(1 0 0 1 -583.58199999999999 -113.64000000000000)" fill="rgb(242,242,242)" stroke="none" stroke-width="1"/><path id="eyurd5qtorgb15" d="M797.640000,652.810000C803.286850,651.741578,809.123827,652.375049,814.410000,654.630000C820.813711,657.497192,828.136289,657.497192,834.540000,654.630000C842.121425,651.298827,850.783607,651.467024,858.230000,655.090000C860.331984,656.202129,862.671967,656.788840,865.050000,656.800000C874.650000,656.800000,882.640000,647.120000,884.300000,634.360000C882.379144,632.965067,880.748721,631.208966,879.500000,629.190000C873.870000,620.120000,865.150000,614.300000,855.360000,614.300000C845.570000,614.300000,836.940000,620,831.320000,629C827.899419,634.532976,821.824273,637.862915,815.320000,637.770000L815.070000,637.770000C807.480000,637.750000,800.860000,643.870000,797.640000,652.810000Z" transform="matrix(1 0 0 1 -550.37900000000002 -113.64000000000000)" opacity="0.03" fill="rgb(0,0,0)" stroke="none" stroke-width="1"/></g></g><g id="eyurd5qtorgb16_to" transform="translate(273.990000,176.120033)"><g id="eyurd5qtorgb16" transform="translate(-273.986145,-176.120033)"><path id="eyurd5qtorgb17" d="M801.594000,284.760000L817.144000,294.600000L807.724000,277.470000C810.391389,275.341764,813.691889,274.163014,817.104000,274.120000L817.354000,274.120000C818.432483,274.141088,819.510560,274.060735,820.574000,273.880000L825.834000,277.220000L823.584000,273.120000C827.310404,271.812051,830.529639,269.362634,832.784000,266.120000L842.194000,272.120000L836.254000,261.300000C841.754000,254.690000,849.174000,250.640000,857.344000,250.640000C867.134000,250.640000,875.854000,256.460000,881.484000,265.540000C884.882711,271.075381,890.992188,274.359225,897.484000,274.140000L898,274.140000C908.810000,274.140000,917.570000,286.390000,917.570000,301.510000C917.570000,316.630000,908.810000,328.880000,898,328.880000C895.624695,328.872456,893.287100,328.285483,891.190000,327.170000C883.741339,323.556464,875.083325,323.388347,867.500000,326.710000C861.098372,329.585921,853.775829,329.604100,847.360000,326.760000C839.841204,323.501297,831.278354,323.665476,823.890000,327.210000C821.805641,328.297702,819.491075,328.870343,817.140000,328.880000C806.330000,328.880000,797.570000,316.630000,797.570000,301.510000C797.483857,295.677864,798.866280,289.917769,801.590000,284.760000Z" transform="matrix(1 0 0 1 -583.58199999999999 -113.64000000000000)" fill="rgb(242,242,242)" stroke="none" stroke-width="1"/><path id="eyurd5qtorgb18" d="M797.640000,324.810000C803.286850,323.741578,809.123827,324.375049,814.410000,326.630000C820.813711,329.497192,828.136289,329.497192,834.540000,326.630000C842.121425,323.298827,850.783607,323.467024,858.230000,327.090000C860.331970,328.202166,862.671962,328.788879,865.050000,328.800000C874.650000,328.800000,882.640000,319.120000,884.300000,306.360000C882.379144,304.965067,880.748721,303.208966,879.500000,301.190000C873.870000,292.120000,865.150000,286.300000,855.360000,286.300000C845.570000,286.300000,836.940000,292,831.320000,301C827.899419,306.532976,821.824273,309.862915,815.320000,309.770000L815.070000,309.770000C807.480000,309.750000,800.860000,315.870000,797.640000,324.810000Z" transform="matrix(1 0 0 1 -550.37900000000002 -113.64000000000000)" opacity="0.03" fill="rgb(0,0,0)" stroke="none" stroke-width="1"/></g></g><g id="eyurd5qtorgb19_to" transform="translate(887.930786,138.274994)"><g id="eyurd5qtorgb19" transform="translate(-887.930786,-138.274994)"><path id="eyurd5qtorgb20" d="M215.782000,249.370000L223.532000,254.280000L218.832000,245.740000C220.160261,244.672449,221.808033,244.080941,223.512000,244.060000L223.632000,244.060000C224.171093,244.065554,224.709687,244.025411,225.242000,243.940000L227.862000,245.600000L226.742000,243.600000C228.601136,242.948664,230.207378,241.727360,231.332000,240.110000L236.022000,243.110000L233.022000,237.720000C235.548330,234.452611,239.413014,232.498227,243.542000,232.400000C248.422000,232.400000,252.772000,235.300000,255.542000,239.830000C257.239378,242.598603,260.296647,244.238063,263.542000,244.120000L263.802000,244.120000C269.192000,244.120000,273.562000,250.240000,273.562000,257.780000C273.562000,265.320000,269.192000,271.430000,263.802000,271.430000C262.616564,271.426115,261.449801,271.134425,260.402000,270.580000C256.686904,268.771472,252.364640,268.687367,248.582000,270.350000C245.398812,271.764898,241.765188,271.764898,238.582000,270.350000C234.830473,268.722530,230.556726,268.806473,226.872000,270.580000C225.833085,271.117658,224.681768,271.402061,223.512000,271.410000C218.122000,271.410000,213.752000,265.300000,213.752000,257.760000C213.714064,254.837315,214.412163,251.952068,215.782000,249.370000Z" transform="matrix(1 0 0 1 644.25000000000000 -113.64000000000000)" fill="rgb(242,242,242)" stroke="none" stroke-width="1"/><path id="eyurd5qtorgb21" d="M213.700000,269.350000C216.518255,268.810256,219.433585,269.127216,222.070000,270.260000C223.645333,270.955600,225.347931,271.316551,227.070000,271.320000C228.811647,271.319491,230.533198,270.947909,232.120000,270.230000C235.904914,268.574593,240.225402,268.662319,243.940000,270.470000C244.984217,271.024396,246.147744,271.316136,247.330000,271.320000C252.120000,271.320000,256.110000,266.490000,256.940000,260.130000C255.984521,259.428973,255.170217,258.553596,254.540000,257.550000C251.740000,253.020000,247.390000,250.120000,242.540000,250.120000C237.690000,250.120000,233.360000,252.990000,230.540000,257.460000C228.830299,260.225244,225.790623,261.885667,222.540000,261.830000L222.410000,261.830000C218.640000,261.830000,215.310000,264.890000,213.700000,269.350000Z" transform="matrix(1 0 0 1 660.92100000000005 -113.64000000000000)" opacity="0.03" fill="rgb(0,0,0)" stroke="none" stroke-width="1"/></g></g><g id="eyurd5qtorgb22_to" transform="translate(197.930000,627.274994)"><g id="eyurd5qtorgb22" transform="translate(-197.930267,-627.274994)"><path id="eyurd5qtorgb23" d="M905.781000,738.370000L913.531000,743.280000L908.831000,734.740000C910.159261,733.672449,911.807033,733.080941,913.511000,733.060000L913.631000,733.060000C914.170092,733.065511,914.708682,733.025368,915.241000,732.940000L917.861000,734.600000L916.741000,732.600000C918.600104,731.948603,920.206329,730.727312,921.331000,729.110000L926.021000,732.110000L923.021000,726.720000C925.547330,723.452611,929.412014,721.498227,933.541000,721.400000C938.421000,721.400000,942.771000,724.300000,945.541000,728.830000C947.238378,731.598603,950.295647,733.238063,953.541000,733.120000L953.801000,733.120000C959.191000,733.120000,963.561000,739.240000,963.561000,746.780000C963.561000,754.320000,959.191000,760.430000,953.801000,760.430000C952.615559,760.426155,951.448787,760.134462,950.401000,759.580000C946.685904,757.771472,942.363640,757.687367,938.581000,759.350000C935.397812,760.764898,931.764188,760.764898,928.581000,759.350000C924.829473,757.722530,920.555726,757.806473,916.871000,759.580000C915.832099,760.117693,914.680773,760.402098,913.511000,760.410000C908.121000,760.410000,903.751000,754.300000,903.751000,746.760000C903.713021,743.837310,904.411123,740.952053,905.781000,738.370000Z" transform="matrix(1 0 0 1 -735.75000000000000 -113.64000000000000)" fill="rgb(242,242,242)" stroke="none" stroke-width="1"/><path id="eyurd5qtorgb24" d="M903.700000,758.350000C906.518255,757.810256,909.433585,758.127216,912.070000,759.260000C913.645324,759.955628,915.347927,760.316580,917.070000,760.320000C918.811644,760.319460,920.533188,759.947879,922.120000,759.230000C925.904914,757.574593,930.225402,757.662319,933.940000,759.470000C934.984217,760.024396,936.147744,760.316136,937.330000,760.320000C942.120000,760.320000,946.110000,755.490000,946.940000,749.130000C945.984521,748.428973,945.170217,747.553596,944.540000,746.550000C941.740000,742.020000,937.390000,739.120000,932.540000,739.120000C927.690000,739.120000,923.360000,741.990000,920.540000,746.460000C918.830299,749.225244,915.790623,750.885667,912.540000,750.830000L912.410000,750.830000C908.640000,750.830000,905.310000,753.890000,903.700000,758.350000Z" transform="matrix(1 0 0 1 -719.07899999999995 -113.64000000000000)" opacity="0.03" fill="rgb(0,0,0)" stroke="none" stroke-width="1"/></g></g><g id="eyurd5qtorgb25_to" transform="translate(917.930267,653.274994)"><g id="eyurd5qtorgb25" transform="translate(-917.930267,-653.274994)"><path id="eyurd5qtorgb26" d="M183.700000,784.350000C186.518255,783.810256,189.433585,784.127216,192.070000,785.260000C193.645333,785.955600,195.347931,786.316551,197.070000,786.320000C198.811647,786.319491,200.533198,785.947909,202.120000,785.230000C205.904914,783.574593,210.225402,783.662319,213.940000,785.470000C214.984217,786.024396,216.147744,786.316136,217.330000,786.320000C222.120000,786.320000,226.110000,781.490000,226.940000,775.130000C225.984521,774.428973,225.170217,773.553596,224.540000,772.550000C221.740000,768.020000,217.390000,765.120000,212.540000,765.120000C207.690000,765.120000,203.360000,767.990000,200.540000,772.460000C198.830299,775.225244,195.790623,776.885667,192.540000,776.830000L192.410000,776.830000C188.640000,776.830000,185.310000,779.890000,183.700000,784.350000Z" transform="matrix(1 0 0 1 720.92100000000005 -113.64000000000000)" opacity="0.03" fill="rgb(0,0,0)" stroke="none" stroke-width="1"/><path id="eyurd5qtorgb27" d="M185.781000,764.370000L193.531000,769.280000L188.831000,760.740000C190.159261,759.672449,191.807033,759.080941,193.511000,759.060000L193.631000,759.060000C194.170092,759.065511,194.708682,759.025368,195.241000,758.940000L197.861000,760.600000L196.741000,758.600000C198.600136,757.948664,200.206378,756.727360,201.331000,755.110000L206.021000,758.110000L203.021000,752.720000C205.547330,749.452611,209.412014,747.498227,213.541000,747.400000C218.421000,747.400000,222.771000,750.300000,225.541000,754.830000C227.238378,757.598603,230.295647,759.238063,233.541000,759.120000L233.801000,759.120000C239.191000,759.120000,243.561000,765.240000,243.561000,772.780000C243.561000,780.320000,239.191000,786.430000,233.801000,786.430000C232.615564,786.426115,231.448801,786.134425,230.401000,785.580000C226.685904,783.771472,222.363640,783.687367,218.581000,785.350000C215.397812,786.764898,211.764188,786.764898,208.581000,785.350000C204.829473,783.722530,200.555726,783.806473,196.871000,785.580000C195.832085,786.117658,194.680768,786.402061,193.511000,786.410000C188.121000,786.410000,183.751000,780.300000,183.751000,772.760000C183.713064,769.837315,184.411163,766.952068,185.781000,764.370000Z" transform="matrix(1 0 0 1 704.25000000000000 -113.64000000000000)" fill="rgb(242,242,242)" stroke="none" stroke-width="1"/></g></g><g id="eyurd5qtorgb28_to" transform="translate(587.986145,39.120041)"><g id="eyurd5qtorgb28" transform="translate(-587.986145,-39.120041)"><path id="eyurd5qtorgb29" d="M487.594000,147.760000L503.144000,157.600000L493.724000,140.470000C496.391389,138.341764,499.691889,137.163014,503.104000,137.120000L503.354000,137.120000C504.432483,137.141088,505.510560,137.060735,506.574000,136.880000L511.834000,140.220000L509.584000,136.120000C513.310404,134.812051,516.529639,132.362634,518.784000,129.120000L528.194000,135.120000L522.254000,124.300000C527.754000,117.690000,535.174000,113.640000,543.344000,113.640000C553.134000,113.640000,561.854000,119.460000,567.484000,128.540000C570.882711,134.075381,576.992188,137.359225,583.484000,137.140000L584,137.140000C594.810000,137.140000,603.570000,149.390000,603.570000,164.510000C603.570000,179.630000,594.810000,191.880000,584,191.880000C581.624695,191.872456,579.287100,191.285483,577.190000,190.170000C569.741339,186.556464,561.083325,186.388347,553.500000,189.710000C547.098372,192.585921,539.775829,192.604100,533.360000,189.760000C525.841204,186.501297,517.278354,186.665476,509.890000,190.210000C507.805655,191.297738,505.491080,191.870381,503.140000,191.880000C492.330000,191.880000,483.570000,179.630000,483.570000,164.510000C483.483857,158.677864,484.866280,152.917769,487.590000,147.760000Z" transform="matrix(1 0 0 1 44.41800000000000 -113.64000000000000)" fill="rgb(242,242,242)" stroke="none" stroke-width="1"/><path id="eyurd5qtorgb30" d="M483.640000,187.810000C489.286850,186.741578,495.123827,187.375049,500.410000,189.630000C506.813711,192.497192,514.136289,192.497192,520.540000,189.630000C528.121425,186.298827,536.783607,186.467024,544.230000,190.090000C546.331984,191.202129,548.671967,191.788840,551.050000,191.800000C560.650000,191.800000,568.640000,182.120000,570.300000,169.360000C568.379144,167.965067,566.748721,166.208966,565.500000,164.190000C559.870000,155.120000,551.150000,149.300000,541.360000,149.300000C531.570000,149.300000,522.940000,155,517.320000,164C513.899419,169.532976,507.824273,172.862915,501.320000,172.770000L501.070000,172.770000C493.480000,172.750000,486.860000,178.870000,483.640000,187.810000Z" transform="matrix(1 0 0 1 77.62100000000000 -113.64000000000000)" opacity="0.03" fill="rgb(0,0,0)" stroke="none" stroke-width="1"/></g></g><g id="eyurd5qtorgb31_to" transform="translate(29.910000,208.274994)"><g id="eyurd5qtorgb31" transform="translate(-29.905273,-208.274994)" opacity="0"><path id="eyurd5qtorgb32" d="M1073.781000,319.370000L1081.531000,324.280000L1076.831000,315.740000C1078.159261,314.672449,1079.807033,314.080941,1081.511000,314.060000L1081.631000,314.060000C1082.170093,314.065559,1082.708688,314.025415,1083.241000,313.940000L1085.861000,315.600000L1084.741000,313.600000C1086.600136,312.948664,1088.206378,311.727360,1089.331000,310.110000L1094.021000,313.110000L1091.021000,307.720000C1093.547330,304.452611,1097.412014,302.498227,1101.541000,302.400000C1106.421000,302.400000,1110.771000,305.300000,1113.541000,309.830000C1115.238378,312.598603,1118.295647,314.238063,1121.541000,314.120000L1121.801000,314.120000C1127.191000,314.120000,1131.561000,320.240000,1131.561000,327.780000C1131.561000,335.320000,1127.191000,341.430000,1121.801000,341.430000C1120.615559,341.426155,1119.448787,341.134462,1118.401000,340.580000C1114.685904,338.771472,1110.363640,338.687367,1106.581000,340.350000C1103.397812,341.764898,1099.764188,341.764898,1096.581000,340.350000C1092.829473,338.722530,1088.555726,338.806473,1084.871000,340.580000C1083.832085,341.117658,1082.680768,341.402061,1081.511000,341.410000C1076.121000,341.410000,1071.751000,335.300000,1071.751000,327.760000C1071.713021,324.837310,1072.411123,321.952053,1073.781000,319.370000Z" transform="matrix(1 0 0 1 -1071.75000000000000 -113.64000000000000)" fill="rgb(242,242,242)" stroke="none" stroke-width="1"/><path id="eyurd5qtorgb33" d="M1071.750000,339.350000C1074.568255,338.810256,1077.483585,339.127216,1080.120000,340.260000C1081.695333,340.955600,1083.397931,341.316551,1085.120000,341.320000C1086.844785,341.312425,1088.548562,340.941001,1090.120000,340.230000C1093.904914,338.574593,1098.225402,338.662319,1101.940000,340.470000C1102.984203,341.024434,1104.147739,341.316176,1105.330000,341.320000C1110.120000,341.320000,1114.110000,336.490000,1114.940000,330.130000C1113.984521,329.428973,1113.170217,328.553596,1112.540000,327.550000C1109.740000,323.020000,1105.390000,320.120000,1100.540000,320.120000C1095.690000,320.120000,1091.360000,322.990000,1088.540000,327.460000C1086.839499,330.209804,1083.822907,331.867981,1080.590000,331.830000L1080.460000,331.830000C1076.690000,331.830000,1073.360000,334.890000,1071.750000,339.350000Z" transform="matrix(1 0 0 1 -1055.13000000000011 -113.63999999999999)" opacity="0.03" fill="rgb(0,0,0)" stroke="none" stroke-width="1"/></g></g></g></svg>