<svg id="eyczqqp64f1p1" xmlns="http://www.w3.org/2000/svg" xmlns:xlink="http://www.w3.org/1999/xlink" viewBox="0 0 982.002000 469.750000" shape-rendering="geometricPrecision" text-rendering="geometricPrecision"><style><![CDATA[#eyczqqp64f1p17_to {animation: eyczqqp64f1p17_to__to 3000ms linear infinite normal forwards}@keyframes eyczqqp64f1p17_to__to { 0% {transform: translate(225.942684px,238.131510px)} 16.666667% {transform: translate(125.940000px,238.131510px)} 33.333333% {transform: translate(25.940000px,238.131510px)} 50% {transform: translate(-75.940000px,238.131510px)} 100% {transform: translate(-75.940000px,238.131510px)} }#eyczqqp64f1p17 {animation: eyczqqp64f1p17_c_o 3000ms linear infinite normal forwards}@keyframes eyczqqp64f1p17_c_o { 0% {opacity: 1} 16.666667% {opacity: 1} 33.333333% {opacity: 1} 50% {opacity: 0} 100% {opacity: 0} }#eyczqqp64f1p44_to {animation: eyczqqp64f1p44_to__to 3000ms linear infinite normal forwards}@keyframes eyczqqp64f1p44_to__to { 0% {transform: translate(-109px,-215.130000px)} 23.333333% {transform: translate(-109px,-215.130000px)} 30% {transform: translate(-109px,-214.130000px)} 36.666667% {transform: translate(-109px,-215.130000px)} 100% {transform: translate(-109px,-215.130000px)} }#eyczqqp64f1p51_to {animation: eyczqqp64f1p51_to__to 3000ms linear infinite normal forwards}@keyframes eyczqqp64f1p51_to__to { 0% {transform: translate(0px,2.997297px)} 10% {transform: translate(0px,2.997297px)} 23.333333% {transform: translate(0px,2.997297px)} 30% {transform: translate(0px,-2.002703px)} 36.666667% {transform: translate(0px,2.997297px)} 100% {transform: translate(0px,2.997297px)} }]]></style><g id="eyczqqp64f1p2" transform="matrix(1 0 0 1 0.00200000000000 0)"><path id="eyczqqp64f1p3" d="M1090,230.880000L1090,669.130000C1089.999894,670.289565,1089.875856,671.445798,1089.630000,672.579000C1088.154542,679.702279,1081.904299,684.827479,1074.630000,684.879000L124.320000,684.879000C118.024458,684.840154,112.396272,680.946465,110.140000,675.069000C109.383433,673.180181,108.996432,671.163703,109,669.129000L109,230.880000C108.941249,226.759358,110.522715,222.784325,113.396141,219.830249C116.269566,216.876173,120.199310,215.185307,124.320000,215.130000L1074.680000,215.130000C1078.800690,215.185307,1082.730434,216.876173,1085.603859,219.830249C1088.477285,222.784325,1090.058751,226.759358,1090,230.880000Z" transform="matrix(1 0 0 1 -109 -215.13000000000000)" opacity="0.15" fill="rgb(54,127,250)" stroke="none" stroke-width="1"/><rect id="eyczqqp64f1p4" width="366" height="412" rx="0" ry="0" transform="matrix(1 0 0 1 307 45)" opacity="0.03" fill="rgb(0,0,0)" stroke="none" stroke-width="1"/><rect id="eyczqqp64f1p5" width="114" height="214" rx="14.620000" ry="0" transform="matrix(1 0 0 1 355 100)" opacity="0.03" fill="rgb(0,0,0)" stroke="none" stroke-width="1"/><rect id="eyczqqp64f1p6" width="114" height="214" rx="14.620000" ry="0" transform="matrix(-1 0 -0 -1 625 314)" opacity="0.03" fill="rgb(0,0,0)" stroke="none" stroke-width="1"/><rect id="eyczqqp64f1p7" width="262" height="262" rx="19.620000" ry="0" transform="matrix(1 0 0 1 26 52)" opacity="0.03" fill="rgb(0,0,0)" stroke="none" stroke-width="1"/><rect id="eyczqqp64f1p8" width="262" height="262" rx="19.620000" ry="0" transform="matrix(-1 0 -0 -1 954 314)" opacity="0.03" fill="rgb(0,0,0)" stroke="none" stroke-width="1"/><path id="eyczqqp64f1p9" d="M419.160000,100L355,170.240000L355,191.890000L434.620000,100Z" fill="rgb(242,242,242)" stroke="none" stroke-width="1"/><path id="eyczqqp64f1p10" d="M469,172.300000L355,283.640000L355.500000,303.500000L469.500000,191.890000Z" fill="rgb(242,242,242)" stroke="none" stroke-width="1"/><path id="eyczqqp64f1p11" d="M575.160000,100L511,170.240000L511,191.890000L590.620000,100Z" fill="rgb(242,242,242)" stroke="none" stroke-width="1"/><path id="eyczqqp64f1p12" d="M625,172.300000L511,283.640000L511.500000,303.500000L625.500000,191.890000Z" fill="rgb(242,242,242)" stroke="none" stroke-width="1"/><path id="eyczqqp64f1p13" d="M112.970000,52L26,151.690000L26,215.600000L157,52Z" fill="rgb(242,242,242)" stroke="none" stroke-width="1"/><path id="eyczqqp64f1p14" d="M228.440000,52L26,251L26,266.120000L255.240000,52Z" fill="rgb(242,242,242)" stroke="none" stroke-width="1"/><path id="eyczqqp64f1p15" d="M780.470000,52.500000L693.500000,152.190000L693.500000,216.100000L824.500000,52.500000Z" fill="rgb(242,242,242)" stroke="none" stroke-width="1"/><path id="eyczqqp64f1p16" d="M895.940000,52.500000L693.500000,251.500000L693.500000,266.620000L922.740000,52.500000Z" fill="rgb(242,242,242)" stroke="none" stroke-width="1"/><g id="eyczqqp64f1p17_to" transform="translate(225.942684,238.131510)"><path id="eyczqqp64f1p17" d="M397,500.450000L397,509.510000C397,514.713548,394.932899,519.703971,391.253435,523.383435C387.573971,527.062899,382.583548,529.130000,377.380000,529.130000L344.120000,529.130000C343.120000,528.190000,342.190000,527.240000,341.240000,526.270000C337.180000,522.120000,333.070000,517.490000,330.510000,511.780000C326.740000,503.390000,326.980000,493.960000,327.180000,486.390000C327.180000,485.660000,327.230000,484.940000,327.250000,484.200000C321.267220,494.539885,309.579574,500.180925,297.762255,498.432253C285.944936,496.683580,276.391861,487.899438,273.660000,476.270000C273.036432,473.651717,272.787286,470.958239,272.920000,468.270000C273.264788,460.578807,276.653757,453.340372,282.340000,448.150000L292.930000,458.310000L287.780000,444.210000C294.771314,440.273949,303.077509,439.399033,310.735480,441.792031C318.393452,444.185029,324.723656,449.633593,328.230000,456.850000Q328.700000,446.020000,329.300000,435.230000L329.180000,435.230000C328.570000,435.130000,327.960000,435,327.370000,434.870000L326.370000,434.610000C325.820000,434.450000,325.270000,434.290000,324.740000,434.110000L323.740000,433.760000C323.200000,433.560000,322.660000,433.320000,322.140000,433.080000C321.853692,432.967767,321.573324,432.840934,321.300000,432.700000C320.650000,432.390000,320.030000,432.060000,319.410000,431.700000C319.270000,431.620000,319.130000,431.550000,318.990000,431.460000C318.250000,431.010000,317.540000,430.530000,316.850000,430.020000C316.610000,429.860000,316.390000,429.660000,316.170000,429.490000C315.710000,429.130000,315.260000,428.760000,314.830000,428.390000L314.070000,427.680000C313.690000,427.320000,313.320000,426.950000,312.970000,426.580000C312.620000,426.210000,312.470000,426.050000,312.230000,425.760000C311.990000,425.470000,311.560000,424.990000,311.230000,424.580000L310.580000,423.740000C310.240000,423.270000,309.920000,422.800000,309.580000,422.310000C309.420000,422.070000,309.250000,421.830000,309.100000,421.580000C308.670000,420.860000,308.270000,420.130000,307.900000,419.370000C307.760000,419.080000,307.640000,418.770000,307.510000,418.490000C307.280000,417.990000,307.060000,417.490000,306.860000,416.960000C306.720000,416.620000,306.610000,416.260000,306.480000,415.890000C306.350000,415.520000,306.170000,414.950000,306.030000,414.450000C305.890000,413.950000,305.830000,413.700000,305.730000,413.310000C305.698976,413.102465,305.648761,412.898256,305.580000,412.700000L305.580000,412.700000C302.832240,400.318267,308.466703,387.590055,319.480000,381.300000L326,394.200000L325.810000,378.580000C339.285097,374.618278,353.668826,380.832587,360.020000,393.360000L360.020000,393.360000L360.110000,393.580000C360.250000,393.850000,360.370000,394.110000,360.500000,394.390000C360.730000,394.910000,360.960000,395.390000,361.160000,395.970000C361.260000,396.210000,361.360000,396.430000,361.450000,396.670000C361.710000,397.400000,361.930000,398.130000,362.140000,398.880000C362.210000,399.130000,362.270000,399.390000,362.330000,399.640000C362.500000,400.330000,362.640000,401.020000,362.760000,401.720000C362.748357,401.855003,362.776148,401.990483,362.840000,402.110000C362.960000,402.930000,363.040000,403.780000,363.100000,404.630000L363.100000,405.280000C363.100000,406.160000,363.150000,407.030000,363.100000,407.920000C362.433218,422.226450,351.455751,433.920761,337.220000,435.490000C336.220000,452.570000,335.530000,469.700000,335.090000,486.680000C334.870000,495.270000,334.930000,502.330000,337.720000,508.550000C339.207217,511.653665,341.148526,514.518444,343.480000,517.050000L343.480000,515.410000C343.837667,507.687612,347.249273,500.423828,352.963898,495.217461C358.678523,490.011095,366.227773,487.288881,373.950000,487.650000L374.030000,487.650000L380.630000,500.720000L380.480000,488.720000C387.211308,490.530572,393.071731,494.691755,397,500.450000Z" transform="translate(-334.942684,-453.261510)" fill="rgb(242,242,242)" stroke="none" stroke-width="1"/></g><rect id="eyczqqp64f1p18" width="12" height="412" rx="0" ry="0" transform="matrix(1 0 0 1 484 45)" opacity="0.03" fill="rgb(0,0,0)" stroke="none" stroke-width="1"/><path id="eyczqqp64f1p19" d="M1089.630000,672.580000C1088.154542,679.703279,1081.904299,684.828479,1074.630000,684.880000L124.320000,684.880000C118.024458,684.841154,112.396272,680.947465,110.140000,675.070000C153.270000,664.140000,267.690000,655.290000,416,651.160000Q428.390000,650.800000,441.090000,650.520000L442.660000,650.520000C444.660000,650.470000,446.760000,650.440000,448.820000,650.380000Q462.310000,650.090000,476.120000,649.830000L479.300000,649.770000L490.200000,649.580000L494.080000,649.520000Q505.570000,649.340000,517.260000,649.200000C541.950000,648.900000,567.260000,648.720000,593,648.690000L636.820000,648.690000L658.080000,648.830000C701.190000,649.120000,742.720000,649.830000,782,650.830000L797.500000,651.260000Q808.630000,651.560000,819.500000,651.920000C944.720000,655.920000,1042.890000,663.390000,1089.630000,672.580000Z" transform="matrix(1 0 0 1 -109 -215.13000000000000)" fill="rgb(63,61,86)" stroke="none" stroke-width="1"/><path id="eyczqqp64f1p20" d="M397.500000,557.630000L397.500000,557.630000C397.500000,563.700000,393.100000,568.630000,387.680000,568.630000L145.320000,568.630000C139.900000,568.630000,135.500000,563.700000,135.500000,557.630000L135.500000,557.630000C135.500000,551.550000,139.900000,546.630000,145.320000,546.630000L387.680000,546.630000C393.100000,546.630000,397.500000,551.550000,397.500000,557.630000Z" transform="matrix(1 0 0 1 -109 -215.13000000000000)" fill="rgb(63,61,86)" stroke="none" stroke-width="1"/><rect id="eyczqqp64f1p21" width="34.860000" height="60.150000" rx="0" ry="0" transform="matrix(1 0 0 1 515.82000000000005 109.38000000000000)" fill="rgb(63,61,86)" stroke="none" stroke-width="1"/><rect id="eyczqqp64f1p22" width="34.860000" height="60.150000" rx="0" ry="0" transform="matrix(1 0 0 1 515.82000000000005 109.38000000000000)" opacity="0.1" fill="rgb(0,0,0)" stroke="none" stroke-width="1"/><path id="eyczqqp64f1p23" d="M796.180000,373.710000C798.260000,372.460000,800.840000,372.540000,803.270000,372.710000C804.725478,372.665000,806.170140,372.973835,807.480000,373.610000C809.980000,375.120000,810.360000,378.530000,810.480000,381.450000C810.600000,384.930000,810.600000,388.790000,808.280000,391.450000C806.440000,393.520000,803.570000,394.280000,800.840000,394.760000C798.918215,394.962834,797.035602,395.441065,795.250000,396.180000C793.480611,397.215530,791.847902,398.468618,790.390000,399.910000C787.140000,402.680000,782.820000,405.400000,778.560000,406.070000C775.700000,400.300000,774.960000,394.770000,779.430000,389.810000C781.900000,387.070000,785.090000,384.960000,787.770000,382.420000C790.450000,379.880000,792.910000,375.680000,796.180000,373.710000Z" transform="matrix(1 0 0 1 -109 -215.13000000000000)" fill="rgb(160,97,106)" stroke="none" stroke-width="1"/><path id="eyczqqp64f1p24" d="M632,666.290000C631.507401,667.491425,631.269059,668.781879,631.300000,670.080000C631.580000,673.080000,634.550000,674.970000,637.300000,676.220000C640.980000,677.910000,645.620000,679.150000,648.820000,676.660000C652.380000,673.890000,651.820000,668.470000,653.210000,664.170000C654.030000,661.660000,655.570000,659.450000,656.580000,657.010000C659.350000,650.320000,657.890000,642.710000,656.390000,635.630000L654.200000,625.320000C654.107984,624.502247,653.757695,623.735114,653.200000,623.130000C651.590000,621.720000,644.040000,621.210000,642.120000,622.550000C639.050000,624.680000,639.790000,631.870000,639.300000,635.250000C637.792413,645.792758,635.349441,656.180410,632,666.290000Z" transform="matrix(1 0 0 1 -109 -215.13000000000000)" fill="rgb(87,90,137)" stroke="none" stroke-width="1"/><path id="eyczqqp64f1p25" d="M620.400000,666.290000C620.887645,667.492876,621.125796,668.782293,621.100000,670.080000C620.820000,673.080000,617.850000,674.970000,615.100000,676.220000C611.420000,677.910000,606.770000,679.150000,603.580000,676.660000C600.020000,673.890000,600.580000,668.470000,599.180000,664.170000C598.370000,661.660000,596.830000,659.450000,595.820000,657.010000C593.040000,650.320000,594.510000,642.710000,596.010000,635.630000L598.200000,625.320000C598.292016,624.502247,598.642305,623.735114,599.200000,623.130000C600.810000,621.720000,608.360000,621.210000,610.280000,622.550000C613.340000,624.680000,612.600000,631.870000,613.090000,635.250000C614.600950,645.793048,617.047268,656.180696,620.400000,666.290000Z" transform="matrix(1 0 0 1 -109 -215.13000000000000)" fill="rgb(87,90,137)" stroke="none" stroke-width="1"/><path id="eyczqqp64f1p26" d="M645.740000,357C646.302070,357.577493,646.705135,358.290608,646.910000,359.070000C647.270000,360.950000,645.520000,362.610000,643.730000,363.290000C641.940000,363.970000,639.940000,364.130000,638.320000,365.160000C636.658935,366.403079,635.456326,368.161279,634.900000,370.160000C631.500000,379.720000,635.290000,391.770000,644.310000,396.420000C650.530000,399.630000,657.930000,399.130000,664.910000,398.550000C665.888975,398.528359,666.855395,398.324902,667.760000,397.950000C668.676793,397.426969,669.468515,396.710324,670.080000,395.850000C678.014950,385.795933,680.783228,372.605907,677.560000,360.210000C677.458256,359.699483,677.257843,359.213735,676.970000,358.780000C675.170000,356.310000,670.830000,359.350000,668.280000,357.670000C667.497461,357.049289,666.910655,356.215955,666.590000,355.270000C664.839058,351.161207,663.632187,346.841348,663,342.420000C662.920000,341.880000,651.560000,346.230000,650.590000,346.710000C646.720000,348.710000,646.520000,346.870000,643.650000,350.140000C646.730000,351,643.190000,354.060000,645.740000,357Z" transform="matrix(1 0 0 1 -109 -215.13000000000000)" fill="rgb(160,97,106)" stroke="none" stroke-width="1"/><path id="eyczqqp64f1p27" d="M645.740000,357C646.302070,357.577493,646.705135,358.290608,646.910000,359.070000C647.270000,360.950000,645.520000,362.610000,643.730000,363.290000C641.940000,363.970000,639.940000,364.130000,638.320000,365.160000C636.658935,366.403079,635.456326,368.161279,634.900000,370.160000C631.500000,379.720000,635.290000,391.770000,644.310000,396.420000C650.530000,399.630000,657.930000,399.130000,664.910000,398.550000C665.888975,398.528359,666.855395,398.324902,667.760000,397.950000C668.676793,397.426969,669.468515,396.710324,670.080000,395.850000C678.014950,385.795933,680.783228,372.605907,677.560000,360.210000C677.458256,359.699483,677.257843,359.213735,676.970000,358.780000C675.170000,356.310000,670.830000,359.350000,668.280000,357.670000C667.497461,357.049289,666.910655,356.215955,666.590000,355.270000C664.839058,351.161207,663.632187,346.841348,663,342.420000C662.920000,341.880000,651.560000,346.230000,650.590000,346.710000C646.720000,348.710000,646.520000,346.870000,643.650000,350.140000C646.730000,351,643.190000,354.060000,645.740000,357Z" transform="matrix(1 0 0 1 -109 -215.13000000000000)" opacity="0.1" fill="rgb(0,0,0)" stroke="none" stroke-width="1"/><path id="eyczqqp64f1p28" d="M605.850000,476.230000Q606.850000,485.890000,607.260000,495.590000C607.550000,501.800000,607.670000,508.160000,605.780000,514.080000C604.780000,517.400000,603.070000,520.500000,602.180000,523.860000C601.337421,527.861759,601.018084,531.955994,601.230000,536.040000C601.158777,538.391677,601.380480,540.743078,601.890000,543.040000C602.560688,545.078190,603.335030,547.080798,604.210000,549.040000C606.910000,556.210000,606.290000,564.160000,605.360000,571.760000C603.610000,586.060000,600.880000,600.220000,598.150000,614.360000L593.220000,640C598.593249,642.210093,604.183983,643.849103,609.900000,644.890000C613.440000,645.530000,618.060000,645.410000,619.470000,642.090000C619.935549,640.569591,620.007803,638.955932,619.680000,637.400000C618.895861,630.274187,619.722897,623.063244,622.100000,616.300000C624.040000,610.810000,626.970000,605.680000,628.460000,600.050000C629.311334,596.499574,629.826937,592.876963,630,589.230000Q630.690000,579.630000,630.580000,570C630.480000,561.340000,629.930000,552.470000,632.520000,544.200000C635.910000,533.380000,644.590000,523.740000,643.580000,512.440000C643.790000,524.890000,644.010000,537.350000,643.170000,549.770000C642.645737,554.912324,642.445342,560.082525,642.570000,565.250000C642.990000,572.820000,645.180000,580.460000,643.570000,587.880000C642.910000,590.880000,641.650000,593.780000,641.320000,596.880000C640.800000,601.700000,642.620000,606.760000,641.010000,611.340000C639.620000,615.340000,635.750000,618.500000,635.870000,622.710000C635.950000,625.860000,638.400000,628.550000,641.260000,629.880000C644.120000,631.210000,647.340000,631.430000,650.480000,631.630000C653.880000,631.850000,658,631.710000,659.710000,628.760000C661.800000,625.170000,658.490000,620.930000,657.870000,616.830000C657.250000,612.730000,659.440000,608.730000,661.400000,605.050000C672.456517,584.269848,678.523317,561.200942,679.120000,537.670000C679.290000,530.560000,678.960000,523.440000,679,516.330000C679.078103,500.012810,681.092184,483.762530,685,467.920000C658.230000,466.900000,631.110000,467.150000,605.850000,476.230000Z" transform="matrix(1 0 0 1 -109 -215.13000000000000)" fill="rgb(60,53,76)" stroke="none" stroke-width="1"/><circle id="eyczqqp64f1p29" r="20.170000" transform="matrix(1 0 0 1 539.75000000000000 121.69000000000000)" fill="rgb(160,97,106)" stroke="none" stroke-width="1"/><path id="eyczqqp64f1p30" d="M664.150000,366.230000C661.970000,370.170000,659.260000,374.100000,655.230000,376.130000C651.200000,378.160000,645.570000,377.640000,643.040000,373.900000C641.130000,371.070000,641.090000,366.820000,638.120000,365.160000C635.740000,363.830000,632.570000,365.070000,630.920000,367.240000C629.270000,369.410000,628.780000,372.240000,628.460000,374.920000C627.791728,381.671352,627.557913,388.458665,627.760000,395.240000C628.180000,428.290000,630.820000,461.310000,630.400000,494.370000C630.418735,499.536657,630.121513,504.699625,629.510000,509.830000C641.680000,506.750000,653.930000,503.670000,666.510000,502.890000C672.580000,502.520000,678.690000,502.690000,684.710000,501.890000C688.845178,501.252240,692.941546,500.384224,696.980000,499.290000C697.521577,499.210565,698.026770,498.970163,698.430000,498.600000C698.747620,498.156100,698.922070,497.625772,698.930000,497.080000C700.170000,485.390000,696.080000,473.880000,694.270000,462.270000C692.570000,451.440000,692.870000,440.380000,691.410000,429.510000C689.410000,414.260000,683.900000,399.410000,684.020000,384.020000C684.020000,378.430000,684.840000,372.750000,683.600000,367.290000C682.600000,362.790000,679.130000,356.790000,674.100000,355.910000C668.530000,354.930000,666.250000,362.440000,664.150000,366.230000Z" transform="matrix(1 0 0 1 -109 -215.13000000000000)" fill="rgb(54,127,250)" stroke="none" stroke-width="1"/><path id="eyczqqp64f1p31" d="M661.910000,373.560000C655.740000,385.850000,649.470000,398.410000,647.460000,412.030000C645.650000,424.310000,647.390000,436.880000,645.900000,449.200000C643.990000,465.020000,636.830000,481.120000,641.690000,496.300000C642.770000,499.690000,644.420000,502.870000,645.570000,506.230000C650.570000,520.990000,645.570000,537.440000,648.800000,552.700000C648.862496,553.489775,649.287131,554.206116,649.950000,554.640000C650.800000,555.010000,651.730000,554.390000,652.620000,554.110000C656.470000,552.880000,659.120000,557.770000,662.170000,560.430000C665.297745,563.077014,669.699646,563.611531,673.370000,561.790000C679.080000,558.850000,680.600000,551.530000,681.370000,545.160000Q687.120000,499.460000,688.370000,453.330000C688.560000,446.330000,688.660000,439.330000,687.510000,432.430000C686.120000,424.060000,682.920000,416.100000,681.200000,407.800000C678.440000,394.440000,679.590000,380.630000,680.340000,367.010000C680.550000,363.010000,679.430000,351.490000,672.640000,355.250000C667.420000,358.140000,664.440000,368.530000,661.910000,373.560000Z" transform="matrix(1 0 0 1 -109 -215.13000000000000)" fill="rgb(87,90,137)" stroke="none" stroke-width="1"/><path id="eyczqqp64f1p32" d="M630.930000,408.110000C630.870000,412.470000,630.800000,416.900000,629.460000,421.050000C628.120000,425.200000,625.540000,428.880000,623.460000,432.760000C618.460000,442.260000,616.650000,453.140000,616.400000,463.860000C616.150000,474.580000,617.400000,485.280000,618.230000,495.970000C619.488116,512.238470,619.771957,528.567633,619.080000,544.870000C625.767262,542.526428,633.000247,542.223603,639.860000,544C643.860000,545,648.630000,546.640000,651.760000,543.920000C653.990000,541.980000,654.260000,538.670000,654.360000,535.720000Q655.950000,490.630000,655.360000,445.500000C655.224686,441.556969,655.334899,437.609339,655.690000,433.680000C656.189384,430.660509,656.523216,427.615960,656.690000,424.560000C656.690000,420.260000,655.540000,416.060000,654.370000,411.920000L643.820000,374.530000C643.130000,372.070000,642.390000,369.530000,640.680000,367.610000C638.970000,365.690000,633.800000,363.150000,631.790000,365.610000C630.050000,367.770000,631.340000,375.170000,631.310000,377.830000Z" transform="matrix(1 0 0 1 -109 -215.13000000000000)" opacity="0.1" fill="rgb(0,0,0)" stroke="none" stroke-width="1"/><path id="eyczqqp64f1p33" d="M629.570000,407.420000C629.510000,411.780000,629.430000,416.220000,628.090000,420.370000C626.750000,424.520000,624.180000,428.190000,622.090000,432.080000C617.090000,441.580000,615.280000,452.460000,615.030000,463.180000C614.780000,473.900000,616.030000,484.600000,616.860000,495.290000C618.118147,511.555129,618.401987,527.880966,617.710000,544.180000C624.401697,541.841575,631.636329,541.538827,638.500000,543.310000C642.500000,544.360000,647.260000,545.960000,650.390000,543.240000C652.620000,541.300000,652.890000,537.990000,653,535.030000Q654.580000,489.940000,654,444.810000C653.861324,440.870508,653.968198,436.926202,654.320000,433C654.811686,429.979456,655.145473,426.935320,655.320000,423.880000C655.320000,419.580000,654.180000,415.370000,653.010000,411.240000L642.460000,373.850000C641.760000,371.380000,641.020000,368.850000,639.310000,366.920000C637.600000,364.990000,632.430000,362.470000,630.420000,364.970000C628.690000,367.120000,629.980000,374.530000,629.940000,377.180000Z" transform="matrix(1 0 0 1 -109 -215.13000000000000)" fill="rgb(87,90,137)" stroke="none" stroke-width="1"/><path id="eyczqqp64f1p34" d="M633.830000,361.610000C628.380000,362.160000,624.190000,366.860000,622.060000,371.900000C619.930000,376.940000,619.310000,382.480000,617.690000,387.700000C614.860000,396.750000,608.990000,404.910000,608.040000,414.340000C607.160000,423.240000,610.800000,432.270000,609.040000,441.030000C608.491664,443.377841,607.786755,445.686336,606.930000,447.940000C603.530000,457.890000,601.590000,468.270000,599.650000,478.610000L596.770000,494C594.770000,504.850000,592.700000,516,594.560000,526.870000C598.536903,524.011513,603.978912,524.358964,607.560000,527.700000C608.560000,528.630000,609.390000,529.810000,610.700000,530.010000C612.950000,530.330000,614.330000,527.650000,614.920000,525.460000C617.043657,517.638757,618.465952,509.643790,619.170000,501.570000C619.550000,497.190000,619.730000,492.750000,621.020000,488.570000C621.840000,485.940000,623.020000,483.470000,623.920000,480.860000C625.920000,474.690000,625.650000,468.050000,626.480000,461.620000C627.190000,456.050000,628.720000,450.620000,629.590000,445.080000C630.486707,438.331822,630.884453,431.526694,630.780000,424.720000L631.170000,385.550000C631.220000,380.480000,631.560000,374.750000,635.420000,371.470000C637.420000,369.800000,642.610000,368.260000,642.130000,365.120000C641.660000,362.170000,636.070000,361.390000,633.830000,361.610000Z" transform="matrix(1 0 0 1 -109 -215.13000000000000)" fill="rgb(253,158,10)" stroke="none" stroke-width="1"/><path id="eyczqqp64f1p35" d="M666.050000,358C671.890000,353.610000,678.340000,349,685.650000,349.180000C688.071671,349.329231,690.469498,349.745078,692.800000,350.420000L709.340000,354.550000C707.692951,357.372978,705.237180,359.637164,702.290000,361.050000C707.815317,360.099183,713.262617,363.101011,715.410000,368.280000C717.720000,374.340000,714.680000,380.980000,711.990000,386.890000C707.390000,396.980000,703.570000,407.720000,703.610000,418.820000C703.610000,424.450000,699.720000,430.020000,699.340000,435.640000C699.063607,439.160158,699.353966,442.701862,700.200000,446.130000C701.209692,449.472031,702.466490,452.734358,703.960000,455.890000C714.090000,479.670000,716.390000,506.120000,715.270000,531.950000L692.690000,531.950000C691.441430,531.874506,690.189780,532.033930,689,532.420000C687.580000,532.970000,686.510000,534.130000,685.250000,534.990000C683.082788,536.458761,680.423230,537.012236,677.850000,536.530000C675.440000,525.530000,679.250000,514.350000,681.130000,503.290000C682.074230,497.231894,682.678509,491.125670,682.940000,485Q683.730000,470.440000,683.740000,455.830000C683.740000,448.470000,683.560000,440.960000,681.130000,434.020000C679.930000,430.580000,678.190000,427.330000,677.060000,423.860000C676.044899,420.379461,675.342117,416.815353,674.960000,413.210000C672.440000,394.620000,668.570000,376.570000,666.050000,358Z" transform="matrix(1 0 0 1 -109 -215.13000000000000)" fill="rgb(253,158,10)" stroke="none" stroke-width="1"/><path id="eyczqqp64f1p36" d="M617.780000,373.560000C616.080000,374.800000,615.580000,377.060000,614.830000,379.030000C612.950000,383.970000,608.960000,387.770000,606.340000,392.350000C604.836496,395.171773,603.591419,398.123810,602.620000,401.170000C599.150000,411.070000,595.620000,421.400000,596.860000,431.810000C597.140000,434.140000,597.730000,436.580000,599.380000,438.250000C602.990000,441.880000,609.660000,439.640000,612.450000,435.340000C615.240000,431.040000,615.400000,425.640000,615.960000,420.560000C617.020000,410.880000,619.830000,401.560000,621.960000,392.060000C623.118964,387.294304,623.960808,382.457037,624.480000,377.580000C624.630000,376.080000,625.480000,372.740000,624.060000,371.790000C623.170000,371.190000,618.610000,373,617.780000,373.560000Z" transform="matrix(1 0 0 1 -109 -215.13000000000000)" fill="rgb(253,158,10)" stroke="none" stroke-width="1"/><path id="eyczqqp64f1p37" d="M728.060000,400.230000C730.550000,403.230000,733.580000,406.400000,737.440000,406.300000C739.353023,406.095072,741.198810,405.477535,742.850000,404.490000C755.821287,398.017176,769.311738,392.641735,783.180000,388.420000C780.016296,395.697894,781.774214,404.179149,787.570000,409.600000C775.868583,412.592261,764.607068,417.096867,754.070000,423C751.834424,424.153772,749.760026,425.596101,747.900000,427.290000C746.702952,428.681985,745.413357,429.991625,744.040000,431.210000C740.980000,433.550000,736.830000,433.710000,732.970000,433.770000C728.368407,434.356715,723.736321,432.940141,720.250000,429.880000L692.630000,410.130000C691.726025,409.744985,691.073074,408.935170,690.888489,407.970112C690.703904,407.005055,691.011916,406.011438,691.710000,405.320000L700.450000,389.730000C702.450000,386.200000,704.700000,380.360000,709.390000,379.730000C714.080000,379.100000,715.800000,384.140000,718.020000,387.440000C721.127111,391.886060,724.478947,396.155979,728.060000,400.230000Z" transform="matrix(1 0 0 1 -109 -215.13000000000000)" fill="rgb(253,158,10)" stroke="none" stroke-width="1"/><rect id="eyczqqp64f1p38" width="18.460000" height="38.280000" rx="4.100000" ry="0" transform="matrix(0.92996900000000 -0.36763800000000 0.36763800000000 0.92996900000000 483.45600000000002 156.53600000000000)" fill="rgb(63,61,86)" stroke="none" stroke-width="1"/><rect id="eyczqqp64f1p39" width="18.460000" height="38.280000" rx="4.100000" ry="0" transform="matrix(0.92996900000000 -0.36763800000000 0.36763800000000 0.92996900000000 483.45600000000002 156.53600000000000)" opacity="0.1" fill="rgb(0,0,0)" stroke="none" stroke-width="1"/><rect id="eyczqqp64f1p40" width="18.460000" height="38.280000" rx="4.100000" ry="0" transform="matrix(0.92996900000000 -0.36763800000000 0.36763800000000 0.92996900000000 482.08199999999999 157.21199999999999)" fill="rgb(63,61,86)" stroke="none" stroke-width="1"/><circle id="eyczqqp64f1p41" r="2.390000" transform="matrix(1 0 0 1 496.33999999999997 165.08999999999997)" fill="rgb(54,127,250)" stroke="none" stroke-width="1"/><path id="eyczqqp64f1p42" d="M598.560000,403.650000C597.320000,402.110000,595.770000,400.830000,594.680000,399.190000C593.394297,396.992918,592.615350,394.536499,592.400000,392C592.008042,389.233096,591.790945,386.444229,591.750000,383.650000C591.738289,382.898606,592.074885,382.184069,592.661696,381.714620C593.248507,381.245171,594.019504,381.073634,594.750000,381.250000C598.738760,382.195576,602.332688,384.363120,605.030000,387.450000C608.320848,391.332342,610.430731,396.076107,611.110000,401.120000C611.450112,403.710198,611.640429,406.317868,611.680000,408.930000L612.040000,419.640000C609.430000,419.640000,605.630000,420.370000,603.130000,419.640000C599.540000,418.640000,600.990000,419.270000,601.350000,415.740000C601.760000,411.340000,601.460000,407.250000,598.560000,403.650000Z" transform="matrix(1 0 0 1 -109 -215.13000000000000)" fill="rgb(160,97,106)" stroke="none" stroke-width="1"/><path id="eyczqqp64f1p43" d="M605.610000,415.100000C604.174347,415.226296,602.728671,415.028071,601.380000,414.520000C598.640000,413.370000,597.070000,410.520000,595.710000,407.890000C595.938179,413.634828,595.643633,419.388505,594.830000,425.080000C594.310000,428.080000,593.500000,431.080000,593.570000,434.150000C593.680619,438.038278,595.210099,441.751713,597.870000,444.590000C598.596875,445.420181,599.498418,446.079264,600.510000,446.520000C602.670000,447.370000,605.130000,446.580000,607.110000,445.380000C609.985640,443.634461,612.268281,441.062570,613.660000,438C615.660000,433.560000,615.560000,428.670000,615.660000,423.910000C615.760000,419.460000,617.190000,414.790000,617.110000,410.520000C613.650000,410.110000,609.820000,414.880000,605.610000,415.100000Z" transform="matrix(1 0 0 1 -109 -215.13000000000000)" fill="rgb(253,158,10)" stroke="none" stroke-width="1"/><g id="eyczqqp64f1p44_to" transform="translate(-109,-215.130000)"><path id="eyczqqp64f1p44" d="M625.690000,329.740000C632.804744,333.494631,641.202574,333.961988,648.690000,331.020000C647.520000,336.130000,650.200000,341.230000,651.590000,346.290000C655.250000,359.620000,649.590000,374.100000,640.590000,384.570000C649.038257,385.414470,657.413366,382.380010,663.360000,376.320000C660.798980,383.202360,656.988348,389.552283,652.120000,395.050000C669.430000,389.660000,681.790000,373.610000,687.340000,356.350000C691.580000,343.130000,692.340000,328.290000,686.560000,315.680000C680.780000,303.070000,667.500000,293.440000,653.670000,294.580000C643.580000,295.410000,634.350000,301.850000,629.220000,310.580000C624.090000,319.310000,622.920000,330,625,340Z" transform="translate(0,0)" fill="rgb(63,61,86)" stroke="none" stroke-width="1"/></g><path id="eyczqqp64f1p45" d="M651.630000,346.290000C653.458341,353.504329,653.014811,361.107206,650.360000,368.060000C653.930000,360.060000,655.300000,351.240000,653,342.870000C651.610000,337.810000,648.920000,332.710000,650.090000,327.600000C642.603009,330.544689,634.204013,330.077267,627.090000,326.320000L626.810000,330.320000C633.724847,333.600918,641.690315,333.868847,648.810000,331.060000C647.560000,336.130000,650.240000,341.230000,651.630000,346.290000Z" transform="matrix(1 0 0 1 -109 -215.13000000000000)" opacity="0.1" fill="rgb(0,0,0)" stroke="none" stroke-width="1"/><path id="eyczqqp64f1p46" d="M627.610000,313.770000C623.982725,322.015925,623.068772,331.200980,625,340L625.610000,331.420000C625.019942,325.461424,625.701636,319.445468,627.610000,313.770000Z" transform="matrix(1 0 0 1 -109 -215.13000000000000)" opacity="0.1" fill="rgb(0,0,0)" stroke="none" stroke-width="1"/><path id="eyczqqp64f1p47" d="M664.770000,372.900000C659.130825,378.629134,651.307947,381.668735,643.280000,381.250000C642.430000,382.400000,641.550000,383.510000,640.630000,384.570000C649.040274,385.407602,657.378883,382.401440,663.320000,376.390000C663.840000,375.240000,664.330000,374.080000,664.770000,372.900000Z" transform="matrix(1 0 0 1 -109 -215.13000000000000)" opacity="0.1" fill="rgb(0,0,0)" stroke="none" stroke-width="1"/><path id="eyczqqp64f1p48" d="M655.450000,391C654.427026,392.417812,653.328784,393.779766,652.160000,395.080000C668.450000,390.010000,680.360000,375.490000,686.320000,359.410000C680.270000,373.440000,669.620000,385.810000,655.450000,391Z" transform="matrix(1 0 0 1 -109 -215.13000000000000)" opacity="0.1" fill="rgb(0,0,0)" stroke="none" stroke-width="1"/><path id="eyczqqp64f1p49" d="M819.500000,257.630000L819.500000,215.630000L797.500000,215.630000L797.500000,657.630000C797.500000,663.705132,802.424868,668.630000,808.500000,668.630000C814.575132,668.630000,819.500000,663.705132,819.500000,657.630000L819.500000,279.630000L873.500000,279.630000L873.500000,310.780000C854.320000,311.980000,839.500000,319.950000,839.500000,329.630000C839.500000,338.530000,852.100000,346.020000,869.090000,348.070000C872.212818,348.442752,875.355014,348.629747,878.500000,348.630000C900.040000,348.630000,917.500000,340.110000,917.500000,329.630000C917.500000,322.430000,909.300000,316.170000,897.200000,312.950000C892.715422,311.779733,888.126714,311.052909,883.500000,310.780000L883.500000,279.630000L993.500000,279.630000L993.500000,310.780000C990.412446,310.972109,987.339841,311.356185,984.300000,311.930000C969.780000,314.700000,959.500000,321.580000,959.500000,329.630000C959.507006,331.178574,959.880525,332.703491,960.590000,334.080000C964.700000,342.420000,980.110000,348.630000,998.500000,348.630000C1020.040000,348.630000,1037.500000,340.110000,1037.500000,329.630000C1037.500000,319.950000,1022.680000,311.980000,1003.500000,310.780000L1003.500000,279.630000L1091,279.630000L1091,257.630000ZM1029.500000,329.630000C1029.500000,337.960000,1015.620000,344.720000,998.500000,344.720000C981.380000,344.720000,967.500000,337.960000,967.500000,329.630000C967.499355,328.827241,967.631123,328.029872,967.890000,327.270000C968.950000,323.930000,972.250000,320.970000,977,318.760000C982.664681,316.270790,988.747177,314.869746,994.930000,314.630000L1002.070000,314.630000C1017.510000,315.480000,1029.500000,321.880000,1029.500000,329.630000ZM894.270000,316.630000C903.390000,319.280000,909.500000,324.110000,909.500000,329.630000C909.500000,337.960000,895.620000,344.720000,878.500000,344.720000C876.339050,344.723084,874.179422,344.612933,872.030000,344.390000C858.030000,342.950000,847.500000,336.890000,847.500000,329.630000C847.500000,321.880000,859.500000,315.480000,874.930000,314.630000L882.070000,314.630000C886.196863,314.841626,890.288029,315.505603,894.270000,316.610000Z" transform="matrix(1 0 0 1 -109 -215.13000000000000)" fill="rgb(63,61,86)" stroke="none" stroke-width="1"/><rect id="eyczqqp64f1p50" width="5.870000" height="9.200000" rx="0" ry="0" transform="matrix(1 0 0 1 379.56999999999999 224.38999999999999)" fill="rgb(83,84,97)" stroke="none" stroke-width="1"/><g id="eyczqqp64f1p51_to" transform="translate(0,2.997297)"><g id="eyczqqp64f1p51" transform="translate(0,0)"><circle id="eyczqqp64f1p52" r="6.020000" transform="matrix(1 0 0 1 336.85999999999996 440.44000000000000)" fill="rgb(87,90,137)" stroke="none" stroke-width="1"/><circle id="eyczqqp64f1p53" r="6.020000" transform="matrix(1 0 0 1 373.43000000000001 444.41999999999996)" fill="rgb(87,90,137)" stroke="none" stroke-width="1"/><path id="eyczqqp64f1p54" d="M461.110000,550C461.110000,550,467.110000,545.120000,472.380000,546.810000C477.650000,548.500000,491.380000,550.190000,493.780000,558.810000C496.180000,567.430000,493.780000,662.260000,493.780000,662.260000C493.780000,662.260000,482.140000,665.260000,478.950000,663.760000C475.760000,662.260000,476.130000,648,476.130000,648L475.200000,563.890000Z" transform="matrix(1 0 0 1 -109 -215.13000000000000)" fill="rgb(15,101,246)" stroke="none" stroke-width="1"/><path id="eyczqqp64f1p55" d="M461.110000,550C461.110000,550,467.110000,545.120000,472.380000,546.810000C477.650000,548.500000,491.380000,550.190000,493.780000,558.810000C496.180000,567.430000,493.780000,662.260000,493.780000,662.260000C493.780000,662.260000,482.140000,665.260000,478.950000,663.760000C475.760000,662.260000,476.130000,648,476.130000,648L475.200000,563.890000Z" transform="matrix(1 0 0 1 -109 -215.13000000000000)" opacity="0.1" fill="rgb(54,127,250)" stroke="none" stroke-width="1"/><path id="eyczqqp64f1p56" d="M457.170000,548.690000C457.170000,548.690000,440.090000,553.200000,439.170000,596.190000C438.250000,639.180000,438.040000,643.690000,438.040000,643.690000C438.040000,643.690000,438.420000,656.090000,463.570000,663.780000L479,663.780000L481.390000,565C481.390000,565,478.570000,550,457.170000,548.690000Z" transform="matrix(1 0 0 1 -109 -215.13000000000000)" fill="rgb(54,127,250)" stroke="none" stroke-width="1"/><path id="eyczqqp64f1p57" d="M455.670000,615.340000C455.670000,615.340000,451.290000,555.230000,474.890000,554.960000L477.100000,557.120000C477.100000,557.120000,456.420000,549.630000,455.670000,615.340000Z" transform="matrix(1 0 0 1 -109 -215.13000000000000)" opacity="0.1" fill="rgb(0,0,0)" stroke="none" stroke-width="1"/><rect id="eyczqqp64f1p58" width="5.870000" height="9.200000" rx="0" ry="0" transform="matrix(1 0 0 1 390.60000000000002 225.84999999999999)" fill="rgb(83,84,97)" stroke="none" stroke-width="1"/><rect id="eyczqqp64f1p59" width="5.870000" height="9.200000" rx="0" ry="0" transform="matrix(1 0 0 1 379.56999999999999 224.38999999999999)" opacity="0.1" fill="rgb(0,0,0)" stroke="none" stroke-width="1"/><path id="eyczqqp64f1p60" d="M505.470000,441L499.600000,441C497.364513,441.059074,495.359810,442.391657,494.440000,444.430000C494.360000,444.610000,494.280000,444.790000,494.200000,444.990000L492.910000,443.740000L490.220000,441.140000L488.570000,439.550000C488.570000,439.550000,499.410000,434,505.470000,441Z" transform="matrix(1 0 0 1 -109 -215.13000000000000)" fill="rgb(83,84,97)" stroke="none" stroke-width="1"/><rect id="eyczqqp64f1p61" width="3.530000" height="107.470000" rx="0" ry="0" transform="matrix(1 0 0 1 392.14999999999998 232.37000000000000)" fill="rgb(87,90,137)" stroke="none" stroke-width="1"/><rect id="eyczqqp64f1p62" width="3.520000" height="107.470000" rx="0" ry="0" transform="matrix(1 0 0 1 381.22000000000003 232.37000000000000)" fill="rgb(87,90,137)" stroke="none" stroke-width="1"/><circle id="eyczqqp64f1p63" r="6.020000" transform="matrix(1 0 0 1 399.02999999999997 448.65999999999997)" fill="rgb(87,90,137)" stroke="none" stroke-width="1"/><path id="eyczqqp64f1p64" d="M515.750000,657.400000L490.480000,663L490.220000,658.510000L490.050000,570.040000C490.039542,561.658720,486.128865,553.759743,479.470000,548.670000L479.470000,548.670000C479.470000,548.670000,492.560000,548.500000,502.590000,553.020000C504.730000,554.020000,506.880000,554.930000,509.080000,555.740000C511.810000,556.740000,515.510000,558.890000,515.750000,563.130000C516.060000,568.650000,517.110000,623.330000,517.490000,643.240000C517.582598,648.011953,516.996744,652.772860,515.750000,657.380000Z" transform="matrix(1 0 0 1 -109 -215.13000000000000)" fill="rgb(54,127,250)" stroke="none" stroke-width="1"/><circle id="eyczqqp64f1p65" r="6.020000" transform="matrix(1 0 0 1 357.27999999999997 453.90999999999997)" fill="rgb(87,90,137)" stroke="none" stroke-width="1"/></g></g><path id="eyczqqp64f1p66" d="M499.670000,440.940000L499.610000,440.940000C497.374513,440.999074,495.369810,442.331657,494.450000,444.370000C494.370000,444.550000,494.290000,444.730000,494.210000,444.930000L492.920000,443.680000C492.909974,443.570228,492.909974,443.459772,492.920000,443.350000C493.041814,442.471729,493.500935,441.675442,494.200000,441.130000C495.563853,440.001496,497.418285,439.667774,499.090000,440.250000C499.380000,440.390000,499.730000,440.620000,499.670000,440.940000Z" transform="matrix(1 0 0 1 -109 -215.13000000000000)" opacity="0.1" fill="rgb(0,0,0)" stroke="none" stroke-width="1"/></g></svg>